<svg xmlns="http://www.w3.org/2000/svg"  viewBox="0 0 48 48" width="240px" height="240px"><path fill="#ffb74d" d="M24,23h17l0.232-6.967C38.217,9.524,31.645,5,24,5c-4.548,0-8.722,1.598-11.993,4.262L12,16L24,23z"/><path fill="#6d4c41" d="M7,27l9,7h20l6.04-4.02C42.663,28.1,43,26.089,43,24c0-2.849-0.645-5.541-1.768-7.967 C41.048,16.371,39.051,20,38,20c-1.375,0-2.625-2-4.5-2s-3.875,4-5,4S26,18.375,23,17s-7.232-0.785-8.703-2 c-1.077-0.89-1.955-2.988-2.29-5.738c-3.791,3.089-6.365,7.613-6.901,12.742L7,27z"/><path fill="#4e342e" d="M25,41l4.004,1.333c3.877-1.057,7.259-3.313,9.728-6.343c-0.005-0.004-0.008-0.009-0.012-0.013 C37.401,35.315,36.784,35,36,35c-0.679,0-14,0-14,0l-5-3c0,0-1,0-5-3c-1.772-1.329-5.071-4.944-6.894-6.996c0,0,0,0,0,0 C5.038,22.661,5,23.326,5,24c0,8.391,5.439,15.511,12.984,18.028L25,41z"/><path fill="#ffcc80" d="M37.788,28.002C32.663,28.002,31,31,31,31s-2-6-7-6c-7,0-7,7-7,7s-0.293,2.813,2.292,5.292 C20.281,38.24,21,39,21,40c0,0.973-1.364,1.674-3.016,2.028C19.873,42.663,21.896,43,24,43c1.734,0,3.411-0.23,5.004-0.667 c0-0.723-0.004-1.481-0.004-1.818c0-2.141,3.244-2.065,4-2.766c0.778-0.721,1-2.75,3-2.75c0.784,0,1.413,0.328,2.732,0.991 c1.438-1.768,2.575-3.8,3.307-6.01C41.504,29.213,40.067,28.002,37.788,28.002z"/></svg>