<svg width="240" height="240" xmlns="http://www.w3.org/2000/svg">

 <g>
  <title>Layer 1</title>
  <g stroke="null" id="svg_13">
   <g stroke="null" transform="matrix(1.7299 -2.09816 2.09816 1.7299 -273.369 184.893)">
    <path stroke="null" d="m129.11575,94.20791a14.86082,14.86082 0 1 0 0,29.72164a14.86082,14.86082 0 1 0 0,-29.72164z" fill="#FFAB91"/>
    <path stroke="null" d="m114.34781,110.64769c0.09288,2.322 3.80808,6.03721 9.10225,9.00937c5.29417,2.87928 10.49545,3.99384 12.53882,2.7864c0,0 0,0 0,0c-1.95048,1.02168 -3.99384,1.57896 -6.22297,1.67184c-2.13624,-0.4644 -4.64401,-1.48608 -7.15177,-2.87928s-4.73689,-2.97216 -6.31585,-4.45825c-1.11456,-1.8576 -1.76472,-3.99384 -1.95048,-6.13009c0,0 0,0 0,0zm13.74626,0.4644c-6.59449,-3.62232 -11.14561,-8.26633 -10.68121,-10.95985c0.27864,-0.37152 0.65016,-0.83592 1.02168,-1.20744c0.37152,2.7864 4.64401,6.96601 10.68121,10.30969s11.98153,4.55113 14.4893,3.34368c-0.09288,0.4644 -0.27864,1.02168 -0.4644,1.48608c-2.04336,1.76472 -8.45209,0.55728 -15.04658,-2.97216zm15.51098,-5.20129c-1.30032,1.67184 -6.31585,0.83592 -11.51713,-2.04336s-8.73073,-6.59449 -7.98769,-8.54497c0.27864,-0.09288 0.4644,-0.18576 0.74304,-0.27864c0.55728,2.04336 3.7152,5.10841 7.98769,7.43041c4.36537,2.322 8.54497,3.34368 10.58833,2.69352c0,0.18576 0.09288,0.4644 0.18576,0.74304z" fill="#FF8A65"/>
    <path stroke="null" d="m123.2643,118.35674c11.51713,6.31585 23.31291,7.24465 26.37795,1.95048c2.322,-3.62232 -0.37152,-9.28801 -6.13009,-14.4893c0.18576,1.02168 0.37152,2.13624 0.37152,3.15792c0,0 0,0.18576 0,0.37152c1.02168,1.95048 1.11456,3.80808 0.37152,5.10841c-1.95048,3.62232 -9.93817,2.97216 -17.64722,-1.30032c-7.70905,-4.36537 -12.26018,-10.68121 -10.12393,-14.11778c0.83592,-1.11456 2.322,-1.95048 4.27249,-2.13624c1.02168,-0.65016 1.95048,-1.11456 3.15792,-1.67184c-7.24465,-1.95048 -13.18898,-1.11456 -15.4181,2.322c-3.06504,5.29417 3.52944,14.67506 14.76794,20.80515z" fill="#FF5722"/>
   </g>
   <g stroke="null" id="svg_12">
    <path stroke="null" id="svg_9" d="m64.99293,104.68543a43.50951,43.50951 0 1 0 0,87.01902a43.50951,43.50951 0 1 0 0,-87.01902z" fill="#FFAB91"/>
    <path stroke="null" id="svg_10" d="m21.75536,152.81783c0.27193,6.79836 11.14931,17.67574 26.64957,26.37764c15.50026,8.42997 30.72859,11.69318 36.71115,8.15803c0,0 0,0 0,0c-5.71062,2.99128 -11.69318,4.62289 -18.21961,4.89482c-6.25449,-1.35967 -13.59672,-4.35095 -20.93895,-8.42997s-13.86866,-8.7019 -18.49154,-13.05285c-3.26321,-5.43869 -5.16675,-11.69318 -5.71062,-17.94767c0,0 0,0 0,0zm40.24629,1.35967c-19.30734,-10.60544 -32.63213,-24.20216 -31.27246,-32.08826c0.8158,-1.08774 1.90354,-2.44741 2.99128,-3.53515c1.08774,8.15803 13.59672,20.39508 31.27246,30.18472s35.07954,13.32479 42.42177,9.78964c-0.27193,1.35967 -0.8158,2.99128 -1.35967,4.35095c-5.98256,5.16675 -24.74603,1.63161 -44.05338,-8.7019zm45.41305,-15.22833c-3.80708,4.89482 -18.49154,2.44741 -33.71987,-5.98256s-25.56184,-19.30734 -23.38636,-25.01797c0.8158,-0.27193 1.35967,-0.54387 2.17548,-0.8158c1.63161,5.98256 10.87738,14.95639 23.38636,21.75475c12.78092,6.79836 25.01797,9.78964 31.00052,7.8861c0,0.54387 0.27193,1.35967 0.54387,2.17548z" fill="#FF8A65"/>
    <path stroke="null" id="svg_11" d="m47.86106,175.38838c33.71987,18.49154 68.25554,21.21088 77.22938,5.71062c6.79836,-10.60544 -1.08774,-27.19344 -17.94767,-42.42177c0.54387,2.99128 1.08774,6.25449 1.08774,9.24577c0,0 0,0.54387 0,1.08774c2.99128,5.71062 3.26321,11.14931 1.08774,14.95639c-5.71062,10.60544 -29.09698,8.7019 -51.66754,-3.80708c-22.57056,-12.78092 -35.89534,-31.27246 -29.64085,-41.33403c2.44741,-3.26321 6.79836,-5.71062 12.50898,-6.25449c2.99128,-1.90354 5.71062,-3.26321 9.24577,-4.89482c-21.21088,-5.71062 -38.61469,-3.26321 -45.14111,6.79836c-8.97384,15.50026 10.33351,42.96564 43.23757,60.91331z" fill="#FF5722"/>
   </g>
  </g>
 </g>
</svg>