<svg xmlns="http://www.w3.org/2000/svg"  viewBox="0 0 48 48" width="240px" height="240px"><path fill="#bcaaa4" d="M21.419,39.773C22.261,39.91,23.119,40,24,40c8.837,0,16-7.163,16-16 c0-0.848-0.085-1.674-0.212-2.486L21.419,39.773z"/><path fill="#ffa726" d="M15.088,37.288c1.867,1.255,4.018,2.109,6.331,2.485c6.698-5.481,12.849-11.594,18.369-18.259 c-0.367-2.349-1.228-4.533-2.5-6.426L15.088,37.288z"/><path fill="#ffb74d" d="M32.76,10.619L10.615,32.752c1.175,1.79,2.697,3.343,4.474,4.536 c8.243-6.506,15.694-13.957,22.2-22.2C36.094,13.312,34.55,11.794,32.76,10.619z"/><path fill="#a1887f" d="M39.998 23.767c-4.933 5.858-10.377 11.298-16.235 16.231C23.839 39.999 23.923 40 24 40c1.091 0 2.157-.111 3.187-.319 4.431-3.89 8.603-8.062 12.494-12.493C39.889 26.157 40 25.092 40 24 40 23.924 39.999 23.842 39.998 23.767zM18.541 25.994c2.58-2.387 5.066-4.873 7.453-7.453 2.356-2.549 4.611-5.193 6.766-7.921-.555-.364-1.162-.698-1.763-.992L9.628 30.997c.294.6.623 1.199.987 1.755C13.342 30.597 15.992 28.35 18.541 25.994z"/><path fill="#bcaaa4" d="M17.122,24.583c2.581-2.391,5.07-4.88,7.461-7.461c2.231-2.414,4.363-4.92,6.414-7.494 c-1.265-0.617-2.618-1.078-4.043-1.344L8.283,26.946c0.266,1.428,0.727,2.784,1.345,4.051 C12.202,28.946,14.708,26.814,17.122,24.583z"/><path fill="#ffcc80" d="M26.954,8.284C25.996,8.105,25.011,8,24,8c-0.234,0-0.693,0.035-0.693,0.035L8.037,23.276 C8.037,23.276,8,23.756,8,24c0,1.008,0.104,1.99,0.283,2.946C15.105,21.353,21.358,15.104,26.954,8.284z"/><path fill="#bcaaa4" d="M23.307,8.035c-8.271,0.355-14.9,6.974-15.271,15.241C13.512,18.595,18.621,13.505,23.307,8.035z"/><path fill="#8d6e63" d="M44.48,3.52c-1.679-1.679-7.107,0.819-13.845,5.937c0.848,0.39,1.666,0.84,2.427,1.366 c2.031-1.433,3.419-2.089,3.821-1.687c0.989,0.989-4.421,8.001-12.083,15.663c-7.662,7.662-14.675,13.072-15.664,12.083 c-0.4-0.4,0.262-1.8,1.687-3.82c-0.525-0.761-0.978-1.582-1.367-2.43C4.348,37.36,1.843,42.803,3.52,44.48 c2.554,2.554,13.794-4.545,25.104-15.855C39.935,17.314,47.034,6.074,44.48,3.52z"/></svg>