<svg xmlns="http://www.w3.org/2000/svg"  viewBox="0 0 48 48" width="240px" height="240px"><path fill="#1565c0" d="M42,24c0-3.873-1.234-7.442-3.315-10.378l0,20.765C40.765,31.451,42,27.873,42,24z"/><path fill="#01579b" d="M38.684,34.387c0.409-6.913,0.41-13.852,0-20.765c-0.651-0.916-1.375-1.775-2.181-2.554v25.864 C37.309,36.153,38.033,35.303,38.684,34.387z"/><path fill="#0277bd" d="M36.513,36.923c0.625-8.605,0.625-17.242,0-25.847c-0.968-0.937-2.044-1.758-3.203-2.46v30.768 C34.469,38.681,35.545,37.861,36.513,36.923z"/><path fill="#039be5" d="M24,42c3.429,0,6.623-0.976,9.351-2.641c0.836-10.223,0.836-20.495,0-30.718 C30.623,6.976,27.429,6,24,6c-1.339,0-2.639,0.157-3.895,0.434v35.131C21.361,41.843,22.661,42,24,42z"/><path fill="#0288d1" d="M20.128,41.572c1.149-11.687,1.149-23.456,0-35.143c-1.361,0.299-2.658,0.76-3.885,1.347v32.449 C17.471,40.812,18.767,41.273,20.128,41.572z"/><path fill="#4dd0e1" d="M16.262,40.233c0.986-10.8,0.986-21.666,0-32.466c-1.015,0.485-1.975,1.059-2.874,1.717v29.032 C14.287,39.174,15.247,39.748,16.262,40.233z"/><path fill="#039be5" d="M6,24c0,5.975,2.923,11.254,7.404,14.528c0.764-9.671,0.764-19.385,0-29.057 C8.923,12.746,6,18.025,6,24z"/><path fill="#bdbdbd" d="M25,0c-1.704,0-2.825,2.643-3.566,6.191c0.691-0.099,1.392-0.165,2.106-0.183 c0.499-2.253,1.033-3.59,1.46-3.958C26.126,3.02,28,10.815,28,24s-1.874,20.98-3,21.951c-0.427-0.368-0.961-1.707-1.46-3.96 c-0.714-0.018-1.415-0.082-2.106-0.18C22.175,45.358,23.296,48,25,48c4.859,0,5-21.544,5-24S29.859,0,25,0z"/></svg>