<svg xmlns="http://www.w3.org/2000/svg"  viewBox="0 0 48 48" width="240px" height="240px"><path fill="#ffab00" d="M24,4C14.684,4,6.879,10.379,4.656,19h38.689C41.121,10.379,33.316,4,24,4z"/><path fill="#fb4469" d="M10.802,39h26.396c1.624-1.43,3.013-3.116,4.104-5H6.698C7.789,35.884,9.177,37.57,10.802,39z"/><path fill="#fb5a5c" d="M6.698,34h34.605c0.897-1.548,1.584-3.226,2.042-5H4.656C5.113,30.774,5.801,32.452,6.698,34z"/><path fill="#fc6f50" d="M4.656,29h38.689C43.757,27.399,44,25.73,44,24H4C4,25.73,4.243,27.399,4.656,29z"/><path fill="#fb8447" d="M44,24c0-1.73-0.243-3.399-0.656-5H4.656C4.243,20.601,4,22.27,4,24H44z"/><path fill="#fc2f75" d="M10.802,39c3.524,3.103,8.134,5,13.198,5s9.675-1.897,13.198-5H10.802z"/></svg>