<svg xmlns="http://www.w3.org/2000/svg"  viewBox="0 0 48 48" width="240px" height="240px"><path fill="#ffcc80" d="M35.633,39H12.367c3.216,2.498,7.245,4,11.633,4S32.417,41.498,35.633,39z"/><path fill="#ffb74d" d="M9.275,36c0.911,1.116,1.954,2.116,3.093,3h23.266c1.139-0.884,2.182-1.884,3.093-3H9.275z"/><path fill="#ffe0b2" d="M6.784,32c0.669,1.438,1.499,2.785,2.49,4h29.451c0.991-1.215,1.821-2.562,2.49-4H6.784z"/><path fill="#ffa726" d="M5,24c0,2.862,0.651,5.566,1.784,8h34.432C42.349,29.566,43,26.862,43,24c0-1.023-0.104-2.02-0.259-3 H5.259C5.104,21.98,5,22.977,5,24z"/><path fill="#ffe0b2" d="M5.982,18c-0.322,0.967-0.559,1.97-0.723,3h37.481c-0.164-1.03-0.401-2.033-0.723-3H5.982z"/><path fill="#ffcc80" d="M24,5c-5.941,0-11.241,2.73-14.725,7L24,13l14.725-1C35.241,7.73,29.941,5,24,5z"/><path fill="#ffb74d" d="M9.275,12c-1.439,1.763-2.558,3.793-3.292,6h36.035c-0.735-2.207-1.853-4.237-3.292-6H9.275z"/></svg>